<?xml version="1.0" standalone="no"?><!DOCTYPE svg PUBLIC "-//W3C//DTD SVG 1.1//EN" "http://www.w3.org/Graphics/SVG/1.1/DTD/svg11.dtd"><svg t="1638347659558" class="icon" viewBox="0 0 1280 1024" version="1.1" xmlns="http://www.w3.org/2000/svg" p-id="3212" xmlns:xlink="http://www.w3.org/1999/xlink" width="250" height="200"><defs><style type="text/css"></style></defs><path d="M292.0576 791.0912h218.432a26.24 26.24 0 0 1 0 52.4672H266.0352a26.2144 26.2144 0 0 1-26.4064-26.048V318.9632H213.504a26.4064 26.4064 0 0 1-26.3424-26.3424v-104.704a26.368 26.368 0 0 1 26.3424-26.3296h104.704c14.5536 0 26.3424 11.8144 26.3424 26.3296v104.704a26.3424 26.3424 0 0 1-26.3424 26.3424h-26.1376v192.3456h218.432a26.2272 26.2272 0 0 1 0 52.4544H292.0576v227.328zM449.4336 187.9168c0-14.5408 10.6368-26.3296 23.6928-26.3296H1069.184c13.0688 0 23.6672 11.8144 23.6672 26.3296v104.704c0 14.5536-10.6112 26.3424-23.6672 26.3424H473.1264c-13.0688 0-23.6672-11.7888-23.6928-26.3424v-104.704zM622.08 485.184c0-14.5408 10.496-26.3424 23.6672-26.3424H1069.184c13.0688 0 23.6672 11.8272 23.6672 26.3424v104.704c0 14.5536-10.4832 26.3424-23.6672 26.3424H645.7344c-13.056-0.0128-23.6416-11.8016-23.6672-26.3424v-104.704zM622.08 764.9664c0-14.5536 10.496-26.3424 23.6672-26.3424H1069.184c13.0688 0 23.6672 11.8272 23.6672 26.3424v104.7168c0 14.5408-10.4832 26.3296-23.6672 26.3296H645.7344c-13.056-0.0128-23.6416-11.8016-23.6672-26.3296v-104.7168z"  p-id="3213"></path><path d="M292.0576 757.5168h218.432a26.24 26.24 0 1 1 0 52.4672H266.0352a26.2272 26.2272 0 0 1-26.4064-26.0608V285.376H213.504a26.3936 26.3936 0 0 1-26.3424-26.3296v-104.7168a26.368 26.368 0 0 1 26.3424-26.3424h104.704c14.5536 0 26.3424 11.8144 26.3424 26.3424v104.7168a26.3424 26.3424 0 0 1-26.3424 26.3296h-26.1376v192.3456h218.432a26.24 26.24 0 0 1 0 52.4672H292.0576v227.328z"  p-id="3214"></path><path d="M449.4336 154.3424c0-14.5408 10.6368-26.3424 23.6928-26.3424H1069.184c13.0688 0 23.6672 11.8144 23.6672 26.3424v104.7168c0 14.5408-10.6112 26.3296-23.6672 26.3296H473.1264c-13.0688 0-23.6672-11.7888-23.6928-26.3296v-104.7168zM622.08 451.6096c0-14.5408 10.496-26.3424 23.6672-26.3424H1069.184c13.0688 0 23.6672 11.8144 23.6672 26.3424v104.7168c0 14.5408-10.4832 26.3296-23.6672 26.3296H645.7344c-13.056-0.0128-23.6416-11.8016-23.6672-26.3296v-104.7168zM622.08 731.392c0-14.5408 10.496-26.3424 23.6672-26.3424H1069.184c13.0688 0 23.6672 11.8272 23.6672 26.3424v104.7168c0 14.5536-10.4832 26.3296-23.6672 26.3296H645.7344c-13.056-0.0128-23.6416-11.7888-23.6672-26.3296V731.392z"  p-id="3215"></path></svg>