<?xml version="1.0" standalone="no"?><!DOCTYPE svg PUBLIC "-//W3C//DTD SVG 1.1//EN" "http://www.w3.org/Graphics/SVG/1.1/DTD/svg11.dtd"><svg t="1658896511151" class="icon" viewBox="0 0 1026 1024" version="1.1" xmlns="http://www.w3.org/2000/svg" p-id="3776" xmlns:xlink="http://www.w3.org/1999/xlink" width="200.390625" height="200"><defs><style type="text/css">@font-face { font-family: "feedback-iconfont"; src: url("//at.alicdn.com/t/font_1031158_u69w8yhxdu.woff2?t=1630033759944") format("woff2"), url("//at.alicdn.com/t/font_1031158_u69w8yhxdu.woff?t=1630033759944") format("woff"), url("//at.alicdn.com/t/font_1031158_u69w8yhxdu.ttf?t=1630033759944") format("truetype"); }
</style></defs><path d="M897.024 0q26.624 0 49.664 10.24t40.448 27.648 27.648 40.448 10.24 49.664l0 576.512q0 26.624-10.24 49.664t-27.648 40.448-40.448 27.648-49.664 10.24l-128 0 0-128 63.488 0q26.624 0 45.568-18.432t18.944-45.056l0-320.512q0-26.624-18.944-45.568t-45.568-18.944l-512 0q-26.624 0-45.568 18.944t-18.944 45.568l0 63.488-128 0 0-256q0-26.624 10.24-49.664t27.648-40.448 40.448-27.648 49.664-10.24l641.024 0zM576.512 448.512q26.624 0 49.664 10.24t40.448 27.648 27.648 40.448 10.24 49.664l0 256q0 26.624-10.24 49.664t-27.648 40.448-40.448 27.648-49.664 10.24l-384 0q-26.624 0-50.176-10.24t-40.96-27.648-27.648-40.448-10.24-49.664l0-256q0-26.624 10.24-49.664t27.648-40.448 40.96-27.648 50.176-10.24l384 0zM576.512 704.512q0-26.624-18.944-45.056t-45.568-18.432l-256 0q-26.624 0-45.056 18.432t-18.432 45.056l0 64.512q0 26.624 18.432 45.056t45.056 18.432l256 0q26.624 0 45.568-18.432t18.944-45.056l0-64.512z" p-id="3777"></path></svg>