<?xml version="1.0" standalone="no"?><!DOCTYPE svg PUBLIC "-//W3C//DTD SVG 1.1//EN" "http://www.w3.org/Graphics/SVG/1.1/DTD/svg11.dtd"><svg t="1658896501325" class="icon" viewBox="0 0 1024 1024" version="1.1" xmlns="http://www.w3.org/2000/svg" p-id="3632" xmlns:xlink="http://www.w3.org/1999/xlink" width="200" height="200"><defs><style type="text/css">@font-face { font-family: "feedback-iconfont"; src: url("//at.alicdn.com/t/font_1031158_u69w8yhxdu.woff2?t=1630033759944") format("woff2"), url("//at.alicdn.com/t/font_1031158_u69w8yhxdu.woff?t=1630033759944") format("woff"), url("//at.alicdn.com/t/font_1031158_u69w8yhxdu.ttf?t=1630033759944") format("truetype"); }
</style></defs><path d="M128 765.952q0 26.624 18.432 45.056t45.056 18.432l191.488 0 0 128-254.976 0q-26.624 0-49.664-10.24t-40.448-27.648-27.648-40.448-10.24-49.664l0-637.952q0-25.6 10.24-49.152t27.648-40.448 40.448-27.136 49.664-10.24l701.44 0q26.624 0 49.664 10.24t40.448 27.136 27.648 40.448 10.24 49.152l0 251.904-128 1.024 0-61.44q0-26.624-18.432-45.056t-45.056-18.432l-574.464 0q-26.624 0-45.056 18.432t-18.432 45.056l0 382.976zM990.208 705.536q21.504 18.432 22.016 34.304t-20.992 33.28q-21.504 18.432-51.2 41.472t-60.928 48.128-61.952 49.152-55.296 43.52q-26.624 20.48-43.52 15.36t-16.896-31.744q1.024-16.384 0-40.448t-1.024-41.472q0-19.456-10.752-24.064t-31.232-4.608q-21.504 0-39.936-0.512t-35.84-0.512-36.352-0.512-41.472-0.512q-9.216 0-19.968-2.048t-19.456-7.168-14.336-15.36-5.632-27.648l0-80.896q0-31.744 15.36-42.496t48.128-10.752q30.72 1.024 61.44 1.024t71.68 1.024q29.696 0 46.08-5.12t16.384-25.6q-1.024-14.336 0.512-35.328t1.536-37.376q0-26.624 14.336-33.28t36.864 10.752q22.528 18.432 52.736 43.008t61.952 50.688 62.976 51.2 54.784 44.544z" p-id="3633"></path></svg>